<svg xmlns="http://www.w3.org/2000/svg" xmlns:xlink="http://www.w3.org/1999/xlink" width="1080" zoomAndPan="magnify" viewBox="0 0 810 809.999993" height="1080" preserveAspectRatio="xMidYMid meet" version="1.0"><defs><g/></defs><g fill="#398564" fill-opacity="1"><g transform="translate(0.00535932, 509.400786)"><g><path d="M 38.765625 -69.109375 C 41.765625 -53.378906 47.664062 -40.972656 56.46875 -31.890625 C 65.269531 -22.804688 75.664062 -18.265625 87.65625 -18.265625 C 95.519531 -18.265625 101.328125 -20.507812 105.078125 -25 C 108.828125 -29.5 110.703125 -34.460938 110.703125 -39.890625 C 110.703125 -47.941406 107.1875 -54.726562 100.15625 -60.25 C 93.132812 -65.78125 83.066406 -71.734375 69.953125 -78.109375 C 52.347656 -86.722656 39.050781 -96.273438 30.0625 -106.765625 C 21.070312 -117.253906 16.578125 -129.988281 16.578125 -144.96875 C 16.578125 -156.019531 19.335938 -165.617188 24.859375 -173.765625 C 30.390625 -181.910156 37.929688 -188.140625 47.484375 -192.453125 C 57.035156 -196.765625 67.710938 -198.921875 79.515625 -198.921875 C 85.691406 -198.921875 92.382812 -198.3125 99.59375 -197.09375 C 106.8125 -195.875 112.570312 -194.046875 116.875 -191.609375 L 140.75 -198.921875 C 144.125 -193.109375 146.28125 -185.097656 147.21875 -174.890625 C 148.15625 -164.679688 148.625 -152.929688 148.625 -139.640625 L 148.625 -135.421875 L 125.3125 -135.421875 C 118.5625 -162.765625 105.351562 -176.4375 85.6875 -176.4375 C 78.195312 -176.4375 72.578125 -174.328125 68.828125 -170.109375 C 65.085938 -165.898438 63.21875 -160.332031 63.21875 -153.40625 C 63.21875 -147.78125 64.710938 -142.90625 67.703125 -138.78125 C 70.703125 -134.664062 74.492188 -131.15625 79.078125 -128.25 C 83.671875 -125.351562 89.804688 -122.03125 97.484375 -118.28125 C 109.285156 -112.476562 119.164062 -107.046875 127.125 -101.984375 C 135.09375 -96.929688 141.976562 -90.234375 147.78125 -81.890625 C 153.582031 -73.554688 156.484375 -63.675781 156.484375 -52.25 C 156.484375 -41.769531 153.859375 -32.265625 148.609375 -23.734375 C 143.367188 -15.210938 135.738281 -8.421875 125.71875 -3.359375 C 115.707031 1.691406 104.050781 4.21875 90.75 4.21875 C 75.570312 4.21875 60.492188 1.03125 45.515625 -5.34375 L 23.875 4.21875 C 20.320312 -2.90625 17.234375 -14.003906 14.609375 -29.078125 C 11.984375 -44.160156 10.671875 -57.503906 10.671875 -69.109375 Z M 38.765625 -69.109375 "/></g></g></g><g fill="#398564" fill-opacity="1"><g transform="translate(166.608416, 509.400786)"><g><path d="M 169.140625 -37.078125 C 171.003906 -31.085938 174.179688 -26.40625 178.671875 -23.03125 C 183.171875 -19.664062 187.953125 -17.984375 193.015625 -17.984375 C 193.015625 -14.609375 192.453125 -11.328125 191.328125 -8.140625 C 190.203125 -4.960938 188.609375 -2.25 186.546875 0 L 110.421875 0 C 108.359375 -2.25 106.765625 -4.960938 105.640625 -8.140625 C 104.515625 -11.328125 103.953125 -14.609375 103.953125 -17.984375 C 114.628906 -17.984375 119.96875 -22.476562 119.96875 -31.46875 C 119.96875 -35.207031 119.3125 -39.609375 118 -44.671875 L 116.3125 -50.578125 L 53.375 -50.578125 L 51.703125 -44.671875 C 50.015625 -38.867188 49.171875 -34.75 49.171875 -32.3125 C 49.171875 -22.757812 55.160156 -17.984375 67.140625 -17.984375 C 67.140625 -14.609375 66.578125 -11.328125 65.453125 -8.140625 C 64.335938 -4.960938 62.75 -2.25 60.6875 0 L -1.96875 0 C -4.03125 -2.25 -5.617188 -4.960938 -6.734375 -8.140625 C -7.859375 -11.328125 -8.421875 -14.609375 -8.421875 -17.984375 C -3.179688 -17.984375 1.585938 -19.523438 5.890625 -22.609375 C 10.203125 -25.703125 13.390625 -30.25 15.453125 -36.25 L 61.53125 -172.21875 C 54.039062 -174.65625 44.582031 -175.875 33.15625 -175.875 C 33.15625 -183.925781 35.398438 -190.671875 39.890625 -196.109375 L 116.875 -196.109375 Z M 110.140625 -72.484375 L 90.1875 -142.15625 C 88.5 -147.78125 86.34375 -152.554688 83.71875 -156.484375 L 59.5625 -72.484375 Z M 110.140625 -72.484375 "/></g></g></g><g fill="#398564" fill-opacity="1"><g transform="translate(351.192249, 509.400786)"><g><path d="M 95.53125 -106.765625 C 100.769531 -106.765625 104.515625 -108.492188 106.765625 -111.953125 C 109.015625 -115.421875 110.140625 -120.992188 110.140625 -128.671875 C 114.441406 -128.671875 118.835938 -128.109375 123.328125 -126.984375 C 127.828125 -125.867188 131.484375 -124.375 134.296875 -122.5 L 134.296875 -70.515625 C 131.484375 -68.640625 127.828125 -67.140625 123.328125 -66.015625 C 118.835938 -64.898438 114.441406 -64.34375 110.140625 -64.34375 C 110.140625 -72.019531 109.0625 -77.492188 106.90625 -80.765625 C 104.75 -84.046875 101.050781 -85.6875 95.8125 -85.6875 L 72.484375 -85.6875 L 72.484375 -35.6875 C 72.484375 -29.875 73.75 -25.65625 76.28125 -23.03125 C 78.8125 -20.414062 83.726562 -19.109375 91.03125 -19.109375 L 113.5 -19.109375 C 113.5 -10.304688 111.816406 -3.9375 108.453125 0 L 13.765625 0 C 11.703125 -2.25 10.109375 -4.960938 8.984375 -8.140625 C 7.867188 -11.328125 7.3125 -14.609375 7.3125 -17.984375 C 14.800781 -17.984375 19.851562 -19.007812 22.46875 -21.0625 C 25.09375 -23.125 26.40625 -26.78125 26.40625 -32.03125 L 26.40625 -164.078125 C 26.40625 -169.128906 24.953125 -172.734375 22.046875 -174.890625 C 19.148438 -177.046875 14.609375 -178.125 8.421875 -178.125 C 8.421875 -185.050781 10.578125 -190.953125 14.890625 -195.828125 L 122.21875 -195.828125 C 129.519531 -199.003906 136.632812 -200.59375 143.5625 -200.59375 C 145.8125 -196.289062 147.921875 -189.410156 149.890625 -179.953125 C 151.859375 -170.492188 152.84375 -163.234375 152.84375 -158.171875 C 150.59375 -156.117188 147.03125 -154.015625 142.15625 -151.859375 C 137.289062 -149.703125 132.890625 -148.25 128.953125 -147.5 C 126.710938 -154.613281 123.015625 -160.460938 117.859375 -165.046875 C 112.710938 -169.640625 105.828125 -171.9375 97.203125 -171.9375 L 72.484375 -171.9375 L 72.484375 -106.765625 Z M 95.53125 -106.765625 "/></g></g></g><g fill="#398564" fill-opacity="1"><g transform="translate(509.647734, 509.400786)"><g><path d="M 14.328125 0 C 12.453125 -2.25 10.953125 -4.960938 9.828125 -8.140625 C 8.703125 -11.328125 8.140625 -14.609375 8.140625 -17.984375 C 14.328125 -17.984375 18.679688 -19.007812 21.203125 -21.0625 C 23.734375 -23.125 25 -26.78125 25 -32.03125 L 25 -164.078125 C 25 -169.316406 23.734375 -173.015625 21.203125 -175.171875 C 18.679688 -177.328125 14.328125 -178.40625 8.140625 -178.40625 C 8.140625 -181.59375 8.703125 -184.773438 9.828125 -187.953125 C 10.953125 -191.140625 12.453125 -193.859375 14.328125 -196.109375 L 82.59375 -196.109375 C 84.46875 -193.859375 85.96875 -191.140625 87.09375 -187.953125 C 88.21875 -184.773438 88.78125 -181.59375 88.78125 -178.40625 C 82.601562 -178.40625 78.25 -177.328125 75.71875 -175.171875 C 73.1875 -173.015625 71.921875 -169.316406 71.921875 -164.078125 L 71.921875 -32.03125 C 71.921875 -26.78125 73.1875 -23.125 75.71875 -21.0625 C 78.25 -19.007812 82.601562 -17.984375 88.78125 -17.984375 C 88.78125 -14.609375 88.21875 -11.328125 87.09375 -8.140625 C 85.96875 -4.960938 84.46875 -2.25 82.59375 0 Z M 14.328125 0 "/></g></g></g><g fill="#398564" fill-opacity="1"><g transform="translate(606.575295, 509.400786)"><g><path d="M 59 -32.03125 C 59 -22.476562 65.835938 -17.703125 79.515625 -17.703125 C 79.515625 -11.140625 77.359375 -5.238281 73.046875 0 L 14.609375 0 C 10.484375 -5.050781 8.421875 -10.953125 8.421875 -17.703125 C 14.984375 -17.703125 19.851562 -18.820312 23.03125 -21.0625 C 26.21875 -23.3125 27.8125 -26.96875 27.8125 -32.03125 L 27.8125 -164.078125 C 27.8125 -173.628906 20.976562 -178.40625 7.3125 -178.40625 C 7.3125 -181.59375 7.867188 -184.773438 8.984375 -187.953125 C 10.109375 -191.140625 11.609375 -193.859375 13.484375 -196.109375 L 52.53125 -196.109375 C 57.96875 -196.109375 63.398438 -194 68.828125 -189.78125 C 74.265625 -185.570312 79.414062 -179.71875 84.28125 -172.21875 L 148.0625 -71.359375 L 148.0625 -164.078125 C 148.0625 -169.128906 146.375 -172.78125 143 -175.03125 C 139.632812 -177.28125 134.671875 -178.40625 128.109375 -178.40625 C 128.109375 -181.78125 128.671875 -185.007812 129.796875 -188.09375 C 130.921875 -191.1875 132.515625 -193.859375 134.578125 -196.109375 L 194.421875 -196.109375 C 196.484375 -193.859375 198.070312 -191.140625 199.1875 -187.953125 C 200.3125 -184.773438 200.875 -181.59375 200.875 -178.40625 C 194.507812 -178.40625 189.6875 -177.28125 186.40625 -175.03125 C 183.132812 -172.78125 181.5 -169.128906 181.5 -164.078125 L 181.5 1.6875 L 170.25 1.6875 C 161.070312 1.6875 154.328125 0.515625 150.015625 -1.828125 C 145.710938 -4.171875 141.597656 -8.242188 137.671875 -14.046875 L 59 -133.453125 Z M 59 -32.03125 "/></g></g></g></svg>